PathFileType	4	(X/Y/Z)	 s10c0103.trc
DataRate	CameraRate	NumFrames	NumMarkers	Units	OrigDataRate	OrigDataStartFrame	OrigNumFrames
200	200	7	50	mm	200	1501	2000
Frame#	Time	racr			lacr			c7			jug			rlel			rdr			llel			ldr			s2			lic			ric			lasi			rasi			rpsi			lpsi			rgt			lgt			rth1			rth2			rth3			rth4			rlfc			rmfc			rsh1			rsh2			rsh3			rsh4			rlmal			rmmal			rcal			rtoe			rmt5			lth1			lth2			lth4			lth3			llfc			lmfc			llmal			lmmal			lcal			lmt5			lsh1			lsh2			lsh3			lsh4			ltoe			SBIKE			LBIKE			RBIKE			
		X1	Y1	Z1	X2	Y2	Z2	X3	Y3	Z3	X4	Y4	Z4	X5	Y5	Z5	X6	Y6	Z6	X7	Y7	Z7	X8	Y8	Z8	X9	Y9	Z9	X10	Y10	Z10	X11	Y11	Z11	X12	Y12	Z12	X13	Y13	Z13	X14	Y14	Z14	X15	Y15	Z15	X16	Y16	Z16	X17	Y17	Z17	X18	Y18	Z18	X19	Y19	Z19	X20	Y20	Z20	X21	Y21	Z21	X22	Y22	Z22	X23	Y23	Z23	X24	Y24	Z24	X25	Y25	Z25	X26	Y26	Z26	X27	Y27	Z27	X28	Y28	Z28	X29	Y29	Z29	X30	Y30	Z30	X31	Y31	Z31	X32	Y32	Z32	X33	Y33	Z33	X34	Y34	Z34	X35	Y35	Z35	X36	Y36	Z36	X37	Y37	Z37	X38	Y38	Z38	X39	Y39	Z39	X40	Y40	Z40	X41	Y41	Z41	X42	Y42	Z42	X43	Y43	Z43	X44	Y44	Z44	X45	Y45	Z45	X46	Y46	Z46	X47	Y47	Z47	X48	Y48	Z48	X49	Y49	Z49	X50	Y50	Z50	
1501	7.5050	434.722857	1291.217853	-33.433175	470.356476	1309.390530	-332.058669	392.007278	1343.878978	-188.454346	430.637655	1208.197222	-203.664160	479.708976	1031.886842	46.090243	640.876372	877.580734	-12.950957	531.654049	1051.374957	-445.400022	662.413313	884.010054	-373.604103	-103.950834	1078.107956	-235.182676	61.575565	1104.099185	-387.856239	68.595933	1101.957618	-95.651102	94.735477	1016.365989	-359.159014	81.056287	1026.794220	-103.690708	-71.644537	1138.542982	-179.753544	-59.112412	1146.422026	-293.751600	-17.118900	997.011686	-38.585373	-25.783213	950.752717	-419.108311	97.642428	922.614636	-22.374488	185.516158	910.484007	-34.153110	252.731766	857.629389	-35.620530	197.431050	943.929631	-48.150817	344.352922	798.838773	-55.655899	326.548063	780.972034	-174.658218	248.693491	735.308821	-22.343917	194.783434	665.852990	-38.691904	115.454967	632.206649	-41.569004	213.767646	647.772817	-66.625687	29.456392	575.154951	-57.231100	58.931336	569.029381	-137.668902	-21.219315	591.376893	-106.924473	146.066221	414.971176	-92.313334	64.140025	451.166888	-35.415701	52.691072	839.600774	-425.172006	122.628330	791.659635	-404.924062	148.870204	815.647668	-397.700552	156.476620	712.019282	-383.154997	232.951901	631.109254	-355.996050	216.087391	622.858062	-245.222945	163.660454	259.027408	-374.816418	174.957870	262.231356	-293.690394	113.124813	219.103835	-334.491940	291.615583	188.207735	-387.322673	184.337950	516.514062	-398.389007	203.992219	432.058746	-386.391332	176.659457	346.992311	-385.474812	230.891829	433.530180	-359.216013	366.300470	229.326997	-325.615161	-204.246955	832.259092	-225.193934	-78.268185	81.577490	-423.744978	-102.597524	80.460727	-24.473935	
1502	7.5100	433.482136	1291.119762	-31.474308	470.810586	1309.512706	-328.789542	391.480987	1343.447248	-186.513928	431.128755	1208.035628	-201.499634	479.307935	1031.463167	47.400158	640.685596	877.741987	-12.729504	532.607200	1052.244216	-444.371988	662.542571	884.024004	-373.645963	-103.400777	1077.942940	-237.745734	63.671029	1103.558015	-388.668660	67.448299	1102.480470	-96.361001	95.756535	1015.852216	-358.528793	80.427375	1027.446938	-103.509195	-71.891826	1138.057317	-182.781808	-58.451777	1146.268987	-295.721828	-19.052275	998.578916	-39.959777	-24.195541	951.017170	-420.129658	97.487764	926.104510	-22.836347	185.604282	916.587064	-34.763179	254.642460	866.173701	-35.303969	196.419843	950.059808	-48.924200	349.747600	810.382726	-55.725128	333.270036	792.392722	-175.631161	254.963520	745.850866	-22.398964	202.089723	675.475603	-38.628853	123.207136	640.631945	-41.701131	221.449504	657.712753	-66.257632	38.470964	582.583396	-56.869739	67.739475	576.681624	-137.335751	-10.987436	599.256541	-106.211178	154.161888	421.631435	-92.280026	72.626084	458.435076	-35.318606	51.340907	839.264037	-425.900945	118.558377	788.291016	-404.859620	146.742323	812.087415	-398.416711	150.350016	707.829766	-384.478559	224.417615	623.291496	-358.028407	205.716283	614.945995	-246.594673	155.426803	252.277201	-375.169539	166.806132	255.768514	-294.246949	105.115604	213.148408	-334.715034	283.409478	180.939277	-387.707389	175.811248	510.083719	-399.592482	195.831436	425.874980	-387.077926	169.132136	340.601006	-386.090747	222.761475	427.565542	-359.768537	358.385589	221.707821	-326.022592	-204.236284	832.254062	-225.211186	-78.239684	81.576276	-423.737900	-102.580330	80.523418	-24.444965	
1503	7.5150	432.324288	1290.998065	-29.510740	471.330336	1309.494650	-325.510333	391.046662	1342.962761	-184.589707	431.654173	1207.806926	-199.300074	478.910375	1031.148887	48.779278	640.432277	877.939237	-12.498186	533.378850	1053.051848	-443.380218	662.658728	884.045005	-373.736575	-103.161088	1078.172383	-240.688375	65.826637	1103.162471	-389.315451	66.382709	1103.324286	-97.003849	96.626076	1015.488998	-357.596700	79.572167	1028.761687	-103.344269	-72.090185	1137.839739	-185.568068	-57.594125	1145.976075	-297.779975	-20.930585	1000.063487	-41.671537	-22.672311	951.356001	-420.969609	97.122554	929.481303	-23.352272	185.647404	923.015811	-34.907080	256.295233	874.900450	-34.984955	195.268732	957.009933	-48.864499	354.753303	822.529059	-55.634333	339.637409	804.168221	-176.610468	261.176285	756.447601	-22.419715	209.520389	685.222269	-38.531986	131.604655	649.159455	-41.363840	229.305235	667.374891	-65.824121	48.156225	589.396277	-56.265580	77.292594	584.164969	-136.904653	-2.154507	606.265371	-106.017176	163.147701	427.849371	-91.998494	81.301032	465.003476	-35.619001	50.069074	838.949273	-426.564126	115.346665	785.759802	-405.870413	144.461452	808.370413	-399.025117	144.629270	703.877874	-386.082163	215.739941	616.361543	-360.442268	195.329877	608.072503	-248.244678	147.038457	246.404650	-375.725531	158.560705	250.098790	-295.011696	96.795246	207.866173	-334.990610	274.807251	174.266521	-388.095661	167.142349	504.974208	-400.918037	187.572179	420.815217	-388.002620	161.526453	335.387007	-387.116978	214.403647	422.729330	-360.686108	350.039673	214.596038	-326.443213	-204.236621	832.275213	-225.239440	-78.217020	81.570416	-423.707059	-102.528843	80.487231	-24.396904	
1504	7.5200	431.212598	1290.869535	-27.548621	471.873777	1309.403917	-322.198173	390.765744	1342.520573	-182.765786	432.117253	1207.555902	-197.142727	478.408771	1030.663457	50.187573	640.075614	878.238443	-12.360535	534.061985	1053.699573	-442.516333	662.762414	884.066186	-373.737212	-102.929131	1078.651027	-242.889876	67.903595	1102.596624	-389.607263	65.425784	1104.361518	-97.551174	97.501071	1015.355047	-356.367184	78.663862	1030.287353	-103.075430	-72.333461	1138.340863	-188.078528	-56.738650	1146.028269	-299.468261	-22.090118	1002.530527	-43.144876	-21.282511	951.800023	-421.753103	96.804465	933.037456	-23.814062	185.198583	929.329525	-35.285529	257.712553	883.884048	-34.470046	194.031627	963.767757	-49.172130	359.401714	834.921998	-55.534514	345.855371	816.068776	-177.548522	267.208841	767.215099	-22.473261	216.986081	695.046622	-38.137321	139.816262	657.125781	-41.283267	237.329472	676.940968	-65.544065	58.074759	595.780364	-55.610802	86.969175	590.693140	-136.336174	8.188151	612.575618	-104.860975	172.537695	433.681198	-91.628893	91.057029	471.289627	-35.402979	48.999880	838.634661	-427.102667	112.649697	783.267569	-407.120324	141.856134	804.650855	-399.239617	139.518767	700.331284	-388.115899	206.898204	610.504412	-363.044160	185.177785	602.255607	-250.065521	138.573143	241.526406	-376.231316	150.187954	245.080714	-295.703334	88.151064	203.493016	-335.315928	265.899092	168.127174	-388.533201	158.702272	500.435745	-402.360200	179.368490	416.358263	-389.041360	153.771313	330.882096	-388.245052	206.113970	418.379396	-361.583728	341.458291	208.179167	-327.343083	-204.220128	832.261612	-225.212492	-78.194302	81.567013	-423.686525	-102.509503	80.540726	-24.388396	
1505	7.5250	430.178767	1290.771413	-25.508938	472.383037	1309.235163	-319.020719	390.585485	1342.057658	-180.996628	432.593794	1207.251122	-194.933908	477.781530	1030.202226	51.571372	639.801237	878.618710	-11.935148	534.507311	1054.272472	-441.762558	662.846667	884.046816	-373.712395	-102.519526	1079.179883	-244.964767	70.027000	1102.068490	-389.743727	64.460808	1105.623114	-98.067483	98.431689	1015.365827	-354.843624	77.570713	1032.010912	-102.827398	-72.755742	1139.044026	-190.112971	-55.781635	1146.082346	-301.113942	-24.048603	1004.932271	-44.733431	-20.006423	952.284673	-422.472821	97.302042	937.630518	-23.476908	184.940167	935.770647	-35.170337	258.934949	892.849776	-33.931168	192.813256	970.737530	-49.040916	363.566543	847.453457	-55.620334	351.890540	828.301792	-178.126540	273.061705	777.808956	-22.601664	224.461602	704.593860	-38.061955	148.321193	664.797238	-41.138858	245.460225	686.677425	-64.997653	68.309503	601.419584	-54.961904	98.966052	597.449484	-135.190863	17.959500	618.327557	-105.147888	182.237197	438.860288	-91.328613	101.113485	476.944116	-35.314023	48.078222	838.501642	-427.651360	110.174482	781.026041	-408.445787	139.889159	801.561621	-399.894916	134.708494	697.161328	-390.327213	198.180658	606.095388	-365.701663	175.753835	597.911742	-252.009370	129.983958	237.556004	-376.970396	141.722242	241.013041	-296.634303	79.267869	199.858246	-335.691283	256.693415	162.720835	-388.960595	150.556899	496.355669	-403.894802	171.200415	412.543682	-390.216278	145.935840	326.993908	-389.176605	197.851978	414.531246	-362.735368	332.654908	202.188783	-327.739290	-204.216338	832.271064	-225.248904	-78.180642	81.585038	-423.685816	-102.503092	80.536591	-24.373926	
1506	7.5300	429.162173	1290.677479	-23.536106	472.927444	1308.968120	-315.812934	390.523818	1341.643008	-179.464795	433.004488	1206.933871	-192.889804	477.023751	1029.806442	52.989354	638.801044	879.545371	-11.288749	534.895769	1054.746097	-440.965621	662.915604	883.984928	-373.613264	-102.010901	1078.939865	-246.488613	72.032008	1101.434538	-389.673839	63.546181	1107.073741	-98.611762	99.397365	1015.461184	-353.249841	76.450849	1034.028071	-102.465854	-73.006202	1139.899265	-191.984200	-54.548521	1146.206519	-302.966592	-26.559967	1007.686581	-46.156699	-18.594897	953.333244	-423.738034	96.933705	941.926773	-23.738322	185.065408	943.335940	-35.108777	259.966654	902.124089	-33.028076	191.691132	977.530552	-49.029669	367.014243	860.047723	-55.137983	357.152628	840.989161	-179.848521	278.787401	788.322629	-22.739600	232.052423	713.975653	-38.004794	156.919035	672.190823	-41.001329	253.664784	696.032365	-64.552475	78.554695	606.449422	-54.329072	108.171221	602.663760	-135.063989	28.094280	623.404626	-104.608318	192.298735	443.733943	-90.975570	111.365535	482.033681	-35.220913	47.157349	838.457789	-428.321335	108.038970	779.155419	-409.883905	137.917442	798.943996	-400.816329	130.268273	694.559639	-392.894760	189.736215	603.032288	-368.360260	167.354685	594.964802	-254.140202	121.178118	234.428027	-377.763454	133.156599	237.504553	-297.624927	70.147948	196.845593	-336.100992	247.097089	157.894264	-389.436344	142.672716	493.286210	-405.513269	162.987744	409.254786	-391.389546	137.667337	323.897996	-390.484249	189.458610	411.207860	-364.084272	322.859470	197.713679	-329.571605	-204.199626	832.329667	-225.319160	-78.195200	81.565037	-423.675427	-102.493709	80.546720	-24.370867	
1507	7.5350	428.219403	1290.539599	-21.544961	473.548917	1308.691406	-312.781307	390.575032	1341.212726	-178.012773	433.479748	1206.586598	-190.897790	476.375032	1029.160547	54.327356	638.578037	879.797764	-11.075534	535.148432	1055.063384	-440.257581	662.917021	883.872782	-373.429790	-101.759569	1080.025119	-247.869751	73.894270	1100.850075	-389.366409	62.312494	1108.510039	-98.902431	100.196823	1015.526765	-351.513422	75.367071	1036.122283	-102.269724	-72.628259	1140.453749	-193.820601	-53.692625	1146.553655	-304.433950	-28.619782	1010.885877	-46.909793	-17.819721	953.847590	-424.221916	96.657216	946.711794	-23.664491	184.681234	950.204856	-35.218089	260.616357	911.186277	-32.318367	190.453542	984.459416	-49.195996	370.613696	873.366402	-55.443397	361.993039	852.954229	-180.335307	284.019358	798.781724	-22.872086	239.554862	723.016491	-37.848133	165.393557	679.225585	-40.870615	261.741753	705.219680	-64.163123	88.564596	610.971292	-53.840262	118.720972	607.563300	-134.491469	38.061529	627.565949	-103.874288	202.776641	448.287765	-90.710882	121.979225	486.593816	-35.087320	46.152057	838.743205	-428.994334	105.763635	777.899814	-411.428304	135.978524	797.028303	-401.724288	126.024366	692.525665	-395.383117	181.793006	601.051869	-370.865773	160.290646	592.989998	-256.310241	112.222031	232.362449	-378.724371	124.472749	234.971098	-298.787357	60.720936	194.741195	-336.552667	237.208319	153.676438	-389.904694	135.017653	490.784432	-406.902111	154.712657	406.755749	-392.809300	128.851616	321.532980	-391.691182	181.411771	408.658108	-365.550510	314.061236	191.773523	-328.877851	-204.186361	832.357656	-225.298194	-78.207287	81.573642	-423.673087	-102.531009	80.549343	-24.402526	
